<?xml version="1.0" encoding="utf-8"?>
<!-- Generator: Adobe Illustrator 21.0.2, SVG Export Plug-In . SVG Version: 6.00 Build 0)  -->
<svg version="1.1" id="Capa_1" xmlns="http://www.w3.org/2000/svg" xmlns:xlink="http://www.w3.org/1999/xlink" x="0px" y="0px"
	 viewBox="0 0 1162.5 764.4" style="enable-background:new 0 0 1162.5 764.4;" xml:space="preserve">
<style type="text/css">
	.st0{fill:#FC852E;}
</style>
<g>
	<g>
		<g>
			<path class="st0" d="M237.2,573.9h-27.5c-10,0-18.1-8.1-18.1-18.1s8.1-18.1,18.1-18.1h48.4c6.6,0,12-5.4,12-12
				c0-6.6-5.4-12-12-12h-22.7V497c0-6.6-5.4-12-12-12s-12,5.4-12,12v16.7h-1.7c-23.2,0-42.1,18.9-42.1,42.1
				c0,23.2,18.9,42.1,42.1,42.1h27.5c10,0,18.1,8.1,18.1,18.1s-8.1,18.1-18.1,18.1h-49.3c-6.6,0-12,5.4-12,12c0,6.6,5.4,12,12,12
				h23.6v17.1c0,6.6,5.4,12,12,12s12-5.4,12-12v-17.1h2c0.1,0,0.2,0,0.3,0c23-0.3,41.5-19.1,41.5-42.1
				C279.3,592.8,260.4,573.9,237.2,573.9z"/>
			<path class="st0" d="M403.8,546.7c-12.6-29-30-57.1-52-83.4c-26.6-32-53.1-53.4-66.6-63.3l51-94.6c2.5-4.7,1.7-10.5-2.2-14.2
				c-13.2-12.9-27.2-19.2-42.8-19.2c-14.3,0-27.4,5.4-38.8,10.2c-9,3.7-17.5,7.3-24.4,7.3c-2.1,0-3.9-0.3-5.7-1
				c-23.8-8.7-42.1-14.1-59.8-14.1c-22.4,0-41.5,9-60.2,28.2c-3.9,4-4.5,10.3-1.4,15l55,83.1c-13.6,10.1-39.6,31.3-65.7,62.6
				c-21.9,26.3-39.4,54.4-52,83.4c-15.8,36.5-23.8,74.6-23.8,113.2c0,51.3,41.8,93.1,93.1,93.1h227c51.3,0,93.1-41.8,93.1-93.1
				C427.6,621.3,419.6,583.2,403.8,546.7z M126.5,312.6c11.6-10,22.7-14.4,36-14.4c14.2,0,30.2,4.8,51.5,12.7
				c4.4,1.6,9.1,2.4,13.9,2.4c11.7,0,22.9-4.6,33.6-9.1c10.3-4.3,20.1-8.4,29.6-8.4c4.6,0,11.1,0.8,19.3,6.6l-48,89.2h-83.6
				L126.5,312.6z M334.5,729h-227c-38.1,0-69.1-31-69.1-69.1c0-64.1,23.5-124.9,69.7-180.7c29.2-35.3,58.9-57.2,67.9-63.6h89.8
				c9.1,6.3,38.7,28.3,67.9,63.6c46.3,55.8,69.7,116.5,69.7,180.7C403.6,698,372.6,729,334.5,729z"/>
		</g>
	</g>
	<g>
		<g>
			<g>
				<g>
					<path class="st0" d="M808.9,103c-4.5,7.2-6.8,15.4-6.8,23.7c0,14.1,9.1,26.5,22.4,30.8l23,7.5c3.2,1,6.5,1.6,9.6,1.6
						c6.5,0,12.8-2,18.1-5.9c8.1-5.9,12.8-15.1,12.8-25V127c0-8.3-2.3-16.5-6.8-23.7l-13.8-22.6c-4.9-7.9-13.2-12.5-22.4-12.5
						c-9.2,0-17.7,4.7-22.4,12.5L808.9,103z M826.7,126.8c0-3.9,1-7.6,3-10.9l13.8-22.6c0.1-0.1,0.6-0.9,1.6-0.9
						c1,0,1.4,0.6,1.6,0.9l13.8,22.6c2,3.3,3,7,3,10.9v8.6c0,2.9-1.7,4.5-2.6,5.2c-1,0.7-3,1.7-5.8,0.9l-23-7.5
						C828.9,133.1,826.9,130.2,826.7,126.8z"/>
				</g>
				<g>
					<path class="st0" d="M681,258.6v18.3c0,6.8,5.5,12.2,12.2,12.2c6.8,0,12.2-5.5,12.2-12.2v-18.3c0-6.8-5.5-12.2-12.2-12.2
						C686.5,246.3,681,251.7,681,258.6z"/>
				</g>
				<g>
					<path class="st0" d="M358.3,351.3v14.4c0,68.9,56.1,125,125,125h140.5v22.4c-18.1,10.9-29.3,30.5-29.3,52.1v91.2
						c-37.4,0.3-67.7,30.8-67.7,68.2c0,16.3,13.2,29.3,29.3,29.3h108.6c1.7,0,3.5-0.1,5.2-0.3c1.3,0.1,2.6,0.3,3.9,0.3h108.6
						c16.7,0,31.6-8.1,41-20.4h11.5c3.7,11.8,14.8,20.4,28,20.4h137.1c19.3,0,37.3-8.6,49.2-23.6c12.1-15,16.7-34.4,12.5-53.1
						l-3.7-17c83.4-80.1,112.2-201.4,73.1-310.7c-3-8.6-6.6-17.1-10.4-25.3c-7.3-15.7-23.6-23.9-40.6-20.1
						c-16.8,3.6-28.3,17.7-28.5,34.9c-0.7,63.7-23.7,124.3-65.2,172.2c-2.3-4-4.7-7.9-7.2-11.8l-28.6-44
						c-12.7-19.6-19.4-42.1-19.4-65.4V139.7c0-25-7.5-49.2-21.7-69.8l-27.5-40c-8.3-12.1-22.1-19.4-36.8-19.4
						c-14.7,0-28.5,7.2-36.8,19.4l-34.8,50.8c-4.3,6.3-7.8,13.1-10.1,20.3h-48.6c-2.4-7.2-5.8-14-10.1-20.3L669.9,30
						c-8.3-12.1-22.1-19.4-36.8-19.4c-14.7,0-28.5,7.2-36.8,19.4l-27.5,40c-14.2,20.7-21.7,44.7-21.7,69.8v14.8
						c-10.6,13.5-18.7,29.1-23.7,45.6c0,0.1,0,0.1-0.1,0.3c-3.9,12.9-5.9,26.3-5.9,40V285h-92.6
						C388.2,284.5,358.3,314.4,358.3,351.3z M500.7,309.1l-7.8,9.3c-6.5,7.8-16,12.1-26,12.1s-19.6-4.5-26-12.1l-7.8-9.3H500.7z
						 M688.3,100.7h-20.6l-18.1-28.9c-3.6-5.8-9.8-9.2-16.5-9.2s-12.9,3.5-16.5,9.2l-16.4,26.3c-3.6,5.8-6.2,11.9-7.9,18.6
						c-6.8,3.6-13.2,7.6-19.4,12.4c-0.3,0.1-0.4,0.3-0.6,0.6c1.7-16.4,7.3-32.1,16.8-45.7l27.5-40c3.7-5.6,9.8-8.8,16.5-8.8
						c6.8,0,12.8,3.2,16.5,8.8l34.8,50.8C685.9,96.4,687.2,98.4,688.3,100.7z M633.1,91.5l6.3,10.2c-4.9,0.6-9.6,1.4-14.2,2.6
						L633.1,91.5z M1044.5,605.8c57-66.7,80.7-154.3,66.4-239.3c29.8,92.9,6.9,193.9-59.1,264.9l-1.9-8.5
						C1048.6,617.1,1046.8,611.3,1044.5,605.8z M1031.2,583.3c-6-7.6-13.1-14.4-20.9-20c-3.3-9.9-7.2-19.6-11.6-29.1
						c49.2-53.5,76.7-122.4,77.5-195.2c0-2.4,0.6-4.3,1.4-5.9C1105.2,419.3,1087.6,512.9,1031.2,583.3z M858.1,724.4
						c0-24,19.6-43.6,43.6-43.6h11.5c3.7,0,7.2-1.7,9.6-4.6c2.3-2.9,3.2-6.8,2.4-10.4l-10.5-48.3c-2.6-11.8,0.3-23.9,7.8-33.2
						c7.5-9.3,18.7-14.7,30.8-14.7c34.8,0,65.3,24.6,72.8,58.5l11.8,54.1c2.4,11.5-0.3,23.3-7.6,32.5c-7.3,9.2-18.4,14.4-30.1,14.4
						H863.1C860.2,729.1,858.1,726.9,858.1,724.4z M772.8,504.2c-33.5,0-60.7,27.2-60.7,60.7v84.3c-6.8-10.1-10.5-21.9-10.5-34.4
						v-44.6c0-26.2-20.9-48.2-46.5-49c-2.3-0.1-4.5,0-6.8,0.3v-32.5c41.3-7.6,72.8-43.9,72.8-87.4v-69c38.3-7.6,66.7-39.3,66.7-76.1
						c0-43-38-77.8-84.7-77.8c-23.9,0-46.7,9.5-62.6,25.5c-16-16-38.7-25.5-62.6-25.5c-6.5,0-12.9,0.7-19.1,2
						c7.5-12.4,17.4-23.4,29.1-32.2c20-15.1,43.9-23.2,69-23.2h115.9c5.9,0,10.9-4.2,12.1-9.9c1.6-7.6,4.5-14.7,8.9-21l34.8-50.8
						c3.7-5.6,9.9-8.8,16.5-8.8c6.8,0,12.8,3.2,16.5,8.8l27.5,40c11.4,16.5,17.4,35.8,17.4,55.9v250.3c0,28,8.1,55.4,23.4,78.8
						l28.6,44c7.3,11.4,13.8,23.3,19.4,35.7c-7.9-2.2-16.3-3.2-24.9-3.2c-19.4,0-37.7,8.6-49.9,23.9c-12.2,15.1-16.8,34.8-12.7,53.8
						l7.3,33.5c-30.5,1.7-55.8,23.6-62.6,52.4h-2.2c0.3-2,0.4-4,0.4-6.2V564.9C833.6,531.5,806.3,504.2,772.8,504.2z M668.9,724.4
						c0-24,19.6-43.6,43.6-43.6h11.8c6.8,0,12.2-5.5,12.2-12.2V565c0-20,16.3-36.2,36.2-36.2c20,0,36.2,16.3,36.2,36.2v137.5
						c0,14.7-11.9,26.6-26.6,26.6H673.8C671.1,729.1,668.9,726.9,668.9,724.4z M648.4,609.3v-63c1.9-0.4,3.9-0.6,5.9-0.6
						c12.5,0.4,22.9,11.5,22.9,24.6v44.6c0,16,4.6,31.8,12.9,45.2c-7.3,2.6-14,6.3-19.8,11.1C656,653.6,648.4,632,648.4,609.3z
						 M623.8,546.9v62.4c0,29.9,10.6,58.2,29.9,80.7c-5.9,10.1-9.3,21.9-9.3,34.4c0,1.6,0.1,3.2,0.4,4.7H556c-2.6,0-4.7-2.2-4.7-4.7
						c0-24,19.6-43.6,43.6-43.6h11.8c6.8,0,12.2-5.5,12.2-12.2V565C619,558.4,620.7,552.3,623.8,546.9z M382.9,365.5v-14.4
						c0-16.7,9.8-31.2,23.9-38c0.9,2.9,2.3,5.8,4.5,8.2l0,0l10.8,12.8c8.5,10.1,20,17,32.6,19.6v20.4c0,4.6-3.7,8.2-8.2,8.2
						c-4.6,0-8.2-3.7-8.2-8.2c0-6.8-5.5-12.2-12.2-12.2c-6.8,0-12.2,5.5-12.2,12.2c0,18.1,14.7,32.8,32.8,32.8
						c7.8,0,14.8-2.7,20.6-7.2c5.6,4.5,12.8,7.2,20.6,7.2c18.1,0,32.8-14.7,32.8-32.8c0-6.8-5.5-12.2-12.2-12.2
						c-6.8,0-12.2,5.5-12.2,12.2c0,4.6-3.7,8.2-8.2,8.2c-4.5,0-8.2-3.7-8.2-8.2v-20.4c12.7-2.7,24.2-9.5,32.6-19.6l10.8-12.8
						c3-3.6,4.7-7.9,5.2-12.2h2.2c6.8,0,12.2-5.5,12.2-12.2v-57c0-9.6,1.2-19.1,3.6-28.5c9.6-5.5,20.6-8.2,32.1-8.2
						c21.6,0,41.6,10.4,52.2,26.9c2.3,3.5,6.2,5.6,10.4,5.6c4.2,0,8.1-2.2,10.4-5.6c10.8-16.7,30.8-26.9,52.2-26.9
						c33.2,0,60.1,23.9,60.1,53.4c0,27.6-24.3,50.9-55.2,53.1c-6.5,0.4-11.4,5.8-11.4,12.2v79.7c0,35.5-28.9,64.3-64.3,64.3H483.2
						C427.9,465.9,382.9,420.9,382.9,365.5L382.9,365.5L382.9,365.5z"/>
				</g>
				<g>
					<path class="st0" d="M573.1,258.6v18.3c0,6.8,5.5,12.2,12.2,12.2c6.8,0,12.2-5.5,12.2-12.2v-18.3c0-6.8-5.5-12.2-12.2-12.2
						C578.6,246.4,573.1,251.7,573.1,258.6z"/>
				</g>
			</g>
		</g>
	</g>
</g>
</svg>
