<?xml version="1.0" encoding="utf-8"?>
<!-- Generator: Adobe Illustrator 21.0.2, SVG Export Plug-In . SVG Version: 6.00 Build 0)  -->
<svg version="1.1" id="Layer_1" xmlns="http://www.w3.org/2000/svg" xmlns:xlink="http://www.w3.org/1999/xlink" x="0px" y="0px"
	 viewBox="0 0 1177 934" style="enable-background:new 0 0 1177 934;" xml:space="preserve">
<style type="text/css">
	.st0{fill:#FFFFFF;}
</style>
<g>
	<g>
		<g>
			<g>
				<path class="st0" d="M913,445.3c-3.1,5-4.7,10.7-4.7,16.5c0,9.8,6.3,18.4,15.6,21.4l16,5.2c2.2,0.7,4.5,1.1,6.7,1.1
					c4.5,0,8.9-1.4,12.6-4.1c5.6-4.1,8.9-10.5,8.9-17.4v-6c0-5.8-1.6-11.5-4.7-16.5l-9.6-15.7c-3.4-5.5-9.2-8.7-15.6-8.7
					c-6.4,0-12.3,3.3-15.6,8.7L913,445.3z M925.4,461.8c0-2.7,0.7-5.3,2.1-7.6l9.6-15.7c0.1-0.1,0.4-0.6,1.1-0.6
					c0.7,0,1,0.4,1.1,0.6l9.6,15.7c1.4,2.3,2.1,4.9,2.1,7.6v6c0,2-1.2,3.1-1.8,3.6c-0.7,0.5-2.1,1.2-4,0.6l-16-5.2
					C926.9,466.2,925.5,464.2,925.4,461.8z"/>
			</g>
			<g>
				<path class="st0" d="M824.1,553.5v12.7c0,4.7,3.8,8.5,8.5,8.5s8.5-3.8,8.5-8.5v-12.7c0-4.7-3.8-8.5-8.5-8.5
					C827.9,544.9,824.1,548.7,824.1,553.5z"/>
			</g>
			<g>
				<path class="st0" d="M599.7,617.9v10c0,47.9,39,86.9,86.9,86.9h97.7v15.6c-12.6,7.6-20.4,21.2-20.4,36.2v63.4
					c-26,0.2-47.1,21.4-47.1,47.4c0,11.3,9.2,20.4,20.4,20.4h75.5c1.2,0,2.4-0.1,3.6-0.2c0.9,0.1,1.8,0.2,2.7,0.2h75.5
					c11.6,0,22-5.6,28.5-14.2h8c2.6,8.2,10.3,14.2,19.5,14.2h95.3c13.4,0,25.9-6,34.2-16.4c8.4-10.4,11.6-23.9,8.7-36.9l-2.6-11.8
					c58-55.7,78-140,50.8-216c-2.1-6-4.6-11.9-7.2-17.6c-5.1-10.9-16.4-16.6-28.2-14c-11.7,2.5-19.7,12.3-19.8,24.3
					c-0.5,44.3-16.5,86.4-45.3,119.7c-1.6-2.8-3.3-5.5-5-8.2l-19.9-30.6c-8.8-13.6-13.5-29.3-13.5-45.5v-174
					c0-17.4-5.2-34.2-15.1-48.5l-19.1-27.8c-5.8-8.4-15.4-13.5-25.6-13.5c-10.2,0-19.8,5-25.6,13.5l-24.2,35.3
					c-3,4.4-5.4,9.1-7,14.1h-33.8c-1.7-5-4-9.7-7-14.1l-24.2-35.3c-5.8-8.4-15.4-13.5-25.6-13.5c-10.2,0-19.8,5-25.6,13.5
					l-19.1,27.8c-9.9,14.4-15.1,31.1-15.1,48.5v10.3c-7.4,9.4-13,20.2-16.5,31.7c0,0.1,0,0.1-0.1,0.2c-2.7,9-4.1,18.3-4.1,27.8v31
					h-64.4C620.5,571.5,599.7,592.3,599.7,617.9z M698.7,588.6l-5.4,6.5c-4.5,5.4-11.1,8.4-18.1,8.4s-13.6-3.1-18.1-8.4l-5.4-6.5
					H698.7z M829.2,443.7h-14.3l-12.6-20.1c-2.5-4-6.8-6.4-11.5-6.4s-9,2.4-11.5,6.4l-11.4,18.3c-2.5,4-4.3,8.3-5.5,12.9
					c-4.7,2.5-9.2,5.3-13.5,8.6c-0.2,0.1-0.3,0.2-0.4,0.4c1.2-11.4,5.1-22.3,11.7-31.8l19.1-27.8c2.6-3.9,6.8-6.1,11.5-6.1
					c4.7,0,8.9,2.2,11.5,6.1l24.2,35.3C827.5,440.7,828.4,442.1,829.2,443.7z M790.8,437.3l4.4,7.1c-3.4,0.4-6.7,1-9.9,1.8
					L790.8,437.3z M1076.8,794.9c39.6-46.4,56.1-107.3,46.2-166.4c20.7,64.6,4.8,134.8-41.1,184.2l-1.3-5.9
					C1079.7,802.7,1078.4,798.7,1076.8,794.9z M1067.6,779.2c-4.2-5.3-9.1-10-14.5-13.9c-2.3-6.9-5-13.6-8.1-20.2
					c34.2-37.2,53.3-85.1,53.9-135.7c0-1.7,0.4-3,1-4.1C1119,665.2,1106.8,730.3,1067.6,779.2z M947.2,877.3
					c0-16.7,13.6-30.3,30.3-30.3h8c2.6,0,5-1.2,6.7-3.2c1.6-2,2.2-4.7,1.7-7.2l-7.3-33.6c-1.8-8.2,0.2-16.6,5.4-23.1
					c5.2-6.5,13-10.2,21.4-10.2c24.2,0,45.4,17.1,50.6,40.7l8.2,37.6c1.7,8-0.2,16.2-5.3,22.6c-5.1,6.4-12.8,10-20.9,10h-95.3
					C948.7,880.6,947.2,879.1,947.2,877.3z M887.9,724.2c-23.3,0-42.2,18.9-42.2,42.2V825c-4.7-7-7.3-15.2-7.3-23.9v-31
					c0-18.2-14.5-33.5-32.3-34.1c-1.6-0.1-3.1,0-4.7,0.2v-22.6c28.7-5.3,50.6-30.5,50.6-60.8v-48c26.6-5.3,46.4-27.3,46.4-52.9
					c0-29.9-26.4-54.1-58.9-54.1c-16.6,0-32.5,6.6-43.5,17.7c-11.1-11.1-26.9-17.7-43.5-17.7c-4.5,0-9,0.5-13.3,1.4
					c5.2-8.6,12.1-16.3,20.2-22.4c13.9-10.5,30.5-16.1,48-16.1H888c4.1,0,7.6-2.9,8.4-6.9c1.1-5.3,3.1-10.2,6.2-14.6l24.2-35.3
					c2.6-3.9,6.9-6.1,11.5-6.1c4.7,0,8.9,2.2,11.5,6.1l19.1,27.8c7.9,11.5,12.1,24.9,12.1,38.9v174c0,19.5,5.6,38.5,16.3,54.8
					l19.9,30.6c5.1,7.9,9.6,16.2,13.5,24.8c-5.5-1.5-11.3-2.2-17.3-2.2c-13.5,0-26.2,6-34.7,16.6c-8.5,10.5-11.7,24.2-8.8,37.4
					l5.1,23.3c-21.2,1.2-38.8,16.4-43.5,36.4h-1.5c0.2-1.4,0.3-2.8,0.3-4.3v-95.6C930.2,743.2,911.2,724.2,887.9,724.2z
					 M815.7,877.3c0-16.7,13.6-30.3,30.3-30.3h8.2c4.7,0,8.5-3.8,8.5-8.5v-72c0-13.9,11.3-25.2,25.2-25.2
					c13.9,0,25.2,11.3,25.2,25.2v95.6c0,10.2-8.3,18.5-18.5,18.5h-75.5C817.2,880.6,815.7,879.1,815.7,877.3z M801.4,797.3v-43.8
					c1.3-0.3,2.7-0.4,4.1-0.4c8.7,0.3,15.9,8,15.9,17.1v31c0,11.1,3.2,22.1,9,31.4c-5.1,1.8-9.7,4.4-13.8,7.7
					C806.7,828.1,801.4,813.1,801.4,797.3z M784.3,753.9v43.4c0,20.8,7.4,40.5,20.8,56.1c-4.1,7-6.5,15.2-6.5,23.9
					c0,1.1,0.1,2.2,0.3,3.3h-61.7c-1.8,0-3.3-1.5-3.3-3.3c0-16.7,13.6-30.3,30.3-30.3h8.2c4.7,0,8.5-3.8,8.5-8.5v-72
					C781,761.9,782.2,757.7,784.3,753.9z M616.8,627.8v-10c0-11.6,6.8-21.7,16.6-26.4c0.6,2,1.6,4,3.1,5.7v0l7.5,8.9
					c5.9,7,13.9,11.8,22.7,13.6v14.2c0,3.2-2.6,5.7-5.7,5.7c-3.2,0-5.7-2.6-5.7-5.7c0-4.7-3.8-8.5-8.5-8.5s-8.5,3.8-8.5,8.5
					c0,12.6,10.2,22.8,22.8,22.8c5.4,0,10.3-1.9,14.3-5c3.9,3.1,8.9,5,14.3,5c12.6,0,22.8-10.2,22.8-22.8c0-4.7-3.8-8.5-8.5-8.5
					s-8.5,3.8-8.5,8.5c0,3.2-2.6,5.7-5.7,5.7c-3.1,0-5.7-2.6-5.7-5.7v-14.2c8.8-1.9,16.8-6.6,22.7-13.6l7.5-8.9
					c2.1-2.5,3.3-5.5,3.6-8.5h1.5c4.7,0,8.5-3.8,8.5-8.5v-39.6c0-6.7,0.8-13.3,2.5-19.8c6.7-3.8,14.3-5.7,22.3-5.7
					c15,0,28.9,7.2,36.3,18.7c1.6,2.4,4.3,3.9,7.2,3.9c2.9,0,5.6-1.5,7.2-3.9c7.5-11.6,21.4-18.7,36.3-18.7
					c23.1,0,41.8,16.6,41.8,37.1c0,19.2-16.9,35.4-38.4,36.9c-4.5,0.3-7.9,4-7.9,8.5v55.4c0,24.7-20.1,44.7-44.7,44.7H686.6
					C648.1,697.6,616.8,666.3,616.8,627.8L616.8,627.8L616.8,627.8z"/>
			</g>
			<g>
				<path class="st0" d="M749.1,553.5v12.7c0,4.7,3.8,8.5,8.5,8.5s8.5-3.8,8.5-8.5v-12.7c0-4.7-3.8-8.5-8.5-8.5
					S749.1,548.7,749.1,553.5z"/>
			</g>
		</g>
	</g>
</g>
<g>
	<g>
		<g>
			<path class="st0" d="M28,78v310.5c0,23,18.7,41.8,41.8,41.8H532l111.5,111.5c2.3,2.3,5.3,3.5,8.4,3.5c1.5,0,3.1-0.3,4.6-0.9
				c4.4-1.8,7.4-6.2,7.4-11V430.3h24.4c23,0,41.8-18.7,41.8-41.8V78c0-23-18.7-41.8-41.8-41.8H69.8C46.7,36.3,28,55,28,78z
				 M51.8,388.6L51.8,388.6V78c0-9.9,8.1-17.9,18-17.9h618.5c9.9,0,18,8.1,18,17.9v310.5c0,9.9-8.1,18-18,18h-36.3
				c-6.2,0-11.3,4.7-11.9,10.8c0,0.3-0.1,0.7-0.1,1.1v86.2l-94.6-94.6c-0.1-0.1-0.3-0.3-0.4-0.4c0,0,0,0-0.1-0.1
				c-2.1-1.9-4.9-3.1-8-3.1H69.8C59.9,406.5,51.8,398.5,51.8,388.6z"/>
		</g>
	</g>
</g>
<g>
	<g>
		<path class="st0" d="M155.3,154.6h-20.6V208h-12.4v-53.4h-20.6v-11h53.6V154.6z"/>
	</g>
	<g>
		<path class="st0" d="M203.6,208h-12.2v-26.7c0-3.7-0.7-6.5-2.1-8.3c-1.4-1.8-3.4-2.7-5.9-2.7c-1.1,0-2.2,0.2-3.4,0.7
			c-1.2,0.5-2.4,1.2-3.4,2c-1.1,0.9-2.1,1.9-3,3.1c-0.9,1.2-1.6,2.5-2,4V208h-12.2v-66.2h12.2v27.5c1.8-3.1,4.1-5.5,7.1-7.1
			c3-1.7,6.3-2.5,9.9-2.5c3.1,0,5.6,0.5,7.5,1.6c1.9,1.1,3.4,2.5,4.5,4.2c1.1,1.8,1.8,3.7,2.3,6c0.4,2.2,0.6,4.5,0.6,6.9V208z"/>
	</g>
	<g>
		<path class="st0" d="M224.4,208.9c-2.3,0-4.4-0.4-6.4-1.1c-2-0.8-3.7-1.8-5.2-3.2c-1.5-1.4-2.6-2.9-3.4-4.8
			c-0.8-1.8-1.2-3.8-1.2-6c0-2.2,0.5-4.3,1.5-6.2c1-1.9,2.4-3.5,4.2-4.9c1.8-1.3,3.9-2.4,6.4-3.1c2.5-0.8,5.2-1.1,8.2-1.1
			c2.1,0,4.2,0.2,6.2,0.5c2,0.4,3.8,0.9,5.4,1.5v-2.7c0-3.1-0.9-5.6-2.7-7.3c-1.8-1.7-4.4-2.5-7.9-2.5c-2.5,0-5,0.5-7.4,1.4
			c-2.4,0.9-4.9,2.2-7.4,4l-3.7-7.7c6.1-4,12.7-6.1,19.8-6.1c6.8,0,12.1,1.7,15.9,5c3.8,3.4,5.7,8.2,5.7,14.6V194
			c0,1.3,0.2,2.2,0.7,2.7c0.5,0.5,1.2,0.8,2.2,0.9V208c-2.1,0.4-3.8,0.6-5.4,0.6c-2.3,0-4.1-0.5-5.3-1.5c-1.2-1-2-2.4-2.3-4.1
			l-0.3-2.6c-2.1,2.8-4.7,4.9-7.7,6.3C231.1,208.2,227.9,208.9,224.4,208.9z M227.9,200c2.1,0,4-0.4,5.8-1.1
			c1.8-0.7,3.3-1.7,4.3-2.9c1.3-1,2-2.2,2-3.4v-5.4c-1.5-0.5-3-1-4.7-1.3c-1.7-0.3-3.3-0.5-4.9-0.5c-3.1,0-5.7,0.7-7.7,2.1
			c-2,1.4-3,3.2-3,5.4c0,2.1,0.8,3.8,2.4,5.1C223.6,199.3,225.6,200,227.9,200z"/>
	</g>
	<g>
		<path class="st0" d="M288.9,205.6c-1.6,0.7-3.6,1.5-6,2.2c-2.4,0.7-4.8,1.1-7.4,1.1c-1.7,0-3.3-0.2-4.8-0.6
			c-1.5-0.4-2.8-1.1-3.9-2c-1.1-0.9-2-2.1-2.7-3.6c-0.7-1.5-1-3.3-1-5.4v-27.3h-6.3v-9.3h6.3v-15.4h12.2v15.4h10v9.3h-10V193
			c0,1.7,0.4,2.9,1.3,3.6c0.9,0.7,2,1,3.2,1c1.3,0,2.5-0.2,3.7-0.6c1.2-0.4,2.2-0.8,2.9-1.1L288.9,205.6z"/>
	</g>
	<g>
		<path class="st0" d="M293.3,164.6l2-11.1h-3.6v-12.2h12.2v12.4l-3.3,10.9H293.3z"/>
	</g>
	<g>
		<path class="st0" d="M328.2,208.9c-4,0-7.9-0.6-11.7-1.9c-3.8-1.3-7.1-3.1-9.8-5.4l4.5-7.6c2.9,2.1,5.7,3.6,8.5,4.7
			c2.8,1.1,5.5,1.6,8.2,1.6c2.4,0,4.3-0.5,5.7-1.4c1.4-0.9,2.1-2.2,2.1-3.9c0-1.7-0.8-2.9-2.4-3.7c-1.6-0.8-4.3-1.7-8-2.7
			c-3.1-0.8-5.7-1.7-7.9-2.4c-2.2-0.8-3.9-1.7-5.3-2.7c-1.3-1-2.3-2.1-2.9-3.4c-0.6-1.3-0.9-2.9-0.9-4.7c0-2.4,0.5-4.6,1.4-6.5
			c0.9-1.9,2.3-3.6,3.9-4.9c1.7-1.4,3.7-2.4,5.9-3.1c2.3-0.7,4.7-1.1,7.4-1.1c3.6,0,6.9,0.5,10,1.5c3.1,1,6,2.7,8.6,5l-4.9,7.3
			c-2.4-1.8-4.8-3.1-7-4c-2.3-0.8-4.5-1.3-6.8-1.3c-2.1,0-3.8,0.4-5.2,1.3c-1.4,0.8-2.1,2.2-2.1,4.1c0,0.8,0.2,1.5,0.5,2.1
			c0.3,0.5,0.9,1,1.6,1.5c0.7,0.4,1.7,0.8,2.9,1.2c1.2,0.4,2.6,0.8,4.4,1.2c3.3,0.8,6.1,1.7,8.4,2.5c2.3,0.8,4.2,1.8,5.7,2.9
			c1.5,1.1,2.6,2.3,3.3,3.8c0.7,1.4,1,3.1,1,5.1c0,4.7-1.7,8.3-5.2,11C338.8,207.6,334.1,208.9,328.2,208.9z"/>
	</g>
	<g>
		<path class="st0" d="M428.1,160.5h11.5L419.7,208h-10l-8.2-20.9l-8.1,20.9h-10l-19.8-47.5h11.4l14.1,36.1l5.8-15.4l-8.3-20.6h9.8
			l5,14.6l5.1-14.6h9.8l-8.3,20.6l5.7,15.4L428.1,160.5z"/>
	</g>
	<g>
		<path class="st0" d="M486.7,208h-12.2v-26.7c0-3.7-0.7-6.5-2.1-8.3c-1.4-1.8-3.4-2.7-5.9-2.7c-1.1,0-2.2,0.2-3.4,0.7
			c-1.2,0.5-2.4,1.2-3.4,2c-1.1,0.9-2.1,1.9-3,3.1c-0.9,1.2-1.6,2.5-2,4V208h-12.2v-66.2h12.2v27.5c1.8-3.1,4.1-5.5,7.1-7.1
			c3-1.7,6.3-2.5,9.9-2.5c3.1,0,5.6,0.5,7.5,1.6c1.9,1.1,3.4,2.5,4.5,4.2c1.1,1.8,1.8,3.7,2.3,6c0.4,2.2,0.6,4.5,0.6,6.9V208z"/>
	</g>
	<g>
		<path class="st0" d="M507.5,208.9c-2.3,0-4.4-0.4-6.4-1.1s-3.7-1.8-5.2-3.2c-1.5-1.4-2.6-2.9-3.4-4.8c-0.8-1.8-1.2-3.8-1.2-6
			c0-2.2,0.5-4.3,1.5-6.2c1-1.9,2.4-3.5,4.2-4.9c1.8-1.3,3.9-2.4,6.4-3.1c2.5-0.8,5.2-1.1,8.2-1.1c2.1,0,4.2,0.2,6.2,0.5
			c2,0.4,3.8,0.9,5.4,1.5v-2.7c0-3.1-0.9-5.6-2.7-7.3c-1.8-1.7-4.4-2.5-7.9-2.5c-2.5,0-5,0.5-7.4,1.4c-2.4,0.9-4.9,2.2-7.4,4
			l-3.7-7.7c6.1-4,12.7-6.1,19.8-6.1c6.8,0,12.1,1.7,15.9,5c3.8,3.4,5.7,8.2,5.7,14.6V194c0,1.3,0.2,2.2,0.7,2.7
			c0.5,0.5,1.2,0.8,2.2,0.9V208c-2.1,0.4-3.8,0.6-5.4,0.6c-2.3,0-4.1-0.5-5.3-1.5c-1.2-1-2-2.4-2.3-4.1l-0.3-2.6
			c-2.1,2.8-4.7,4.9-7.7,6.3C514.2,208.2,511,208.9,507.5,208.9z M511,200c2.1,0,4-0.4,5.8-1.1c1.8-0.7,3.3-1.7,4.3-2.9
			c1.3-1,2-2.2,2-3.4v-5.4c-1.5-0.5-3-1-4.7-1.3c-1.7-0.3-3.3-0.5-4.9-0.5c-3.1,0-5.7,0.7-7.7,2.1c-2,1.4-3,3.2-3,5.4
			c0,2.1,0.8,3.8,2.4,5.1C506.7,199.3,508.7,200,511,200z"/>
	</g>
	<g>
		<path class="st0" d="M572,205.6c-1.6,0.7-3.6,1.5-6,2.2c-2.4,0.7-4.8,1.1-7.4,1.1c-1.7,0-3.3-0.2-4.8-0.6c-1.5-0.4-2.8-1.1-3.9-2
			c-1.1-0.9-2-2.1-2.7-3.6c-0.7-1.5-1-3.3-1-5.4v-27.3H540v-9.3h6.3v-15.4h12.2v15.4h10v9.3h-10V193c0,1.7,0.4,2.9,1.3,3.6
			c0.9,0.7,2,1,3.2,1c1.3,0,2.5-0.2,3.7-0.6c1.2-0.4,2.2-0.8,2.9-1.1L572,205.6z"/>
	</g>
	<g>
		<path class="st0" d="M123.9,317.7c-4,0-7.9-0.6-11.7-1.9c-3.8-1.3-7.1-3.1-9.8-5.4l4.5-7.6c2.9,2.1,5.7,3.6,8.5,4.7
			c2.8,1.1,5.5,1.6,8.2,1.6c2.4,0,4.3-0.5,5.7-1.4c1.4-0.9,2.1-2.2,2.1-3.9c0-1.7-0.8-2.9-2.4-3.7c-1.6-0.8-4.3-1.7-8-2.7
			c-3.1-0.8-5.7-1.7-7.9-2.4c-2.2-0.8-3.9-1.7-5.3-2.7c-1.3-1-2.3-2.1-2.9-3.4c-0.6-1.3-0.9-2.9-0.9-4.7c0-2.4,0.5-4.6,1.4-6.5
			c0.9-1.9,2.3-3.6,3.9-4.9c1.7-1.4,3.7-2.4,5.9-3.1c2.3-0.7,4.7-1.1,7.4-1.1c3.6,0,6.9,0.5,10,1.5c3.1,1,6,2.7,8.6,5l-4.9,7.3
			c-2.4-1.8-4.8-3.1-7-4c-2.3-0.8-4.5-1.3-6.8-1.3c-2.1,0-3.8,0.4-5.2,1.3c-1.4,0.8-2.1,2.2-2.1,4.1c0,0.8,0.2,1.5,0.5,2.1
			c0.3,0.5,0.9,1,1.6,1.5c0.7,0.4,1.7,0.8,2.9,1.2c1.2,0.4,2.6,0.8,4.4,1.2c3.3,0.8,6.1,1.7,8.4,2.5c2.3,0.8,4.2,1.8,5.7,2.9
			c1.5,1.1,2.6,2.3,3.3,3.8c0.7,1.4,1,3.1,1,5.1c0,4.7-1.7,8.3-5.2,11C134.5,316.4,129.9,317.7,123.9,317.7z"/>
	</g>
	<g>
		<path class="st0" d="M192.5,316.8h-12.2v-26.7c0-3.7-0.7-6.5-2.1-8.3c-1.4-1.8-3.4-2.7-5.9-2.7c-1.1,0-2.2,0.2-3.4,0.7
			c-1.2,0.5-2.4,1.2-3.4,2c-1.1,0.9-2.1,1.9-3,3.1c-0.9,1.2-1.6,2.5-2,4v27.7h-12.2v-66.2h12.2v27.5c1.8-3.1,4.1-5.5,7.1-7.1
			c3-1.7,6.3-2.5,9.9-2.5c3.1,0,5.6,0.5,7.5,1.6c1.9,1.1,3.4,2.5,4.5,4.2c1.1,1.8,1.8,3.7,2.3,6c0.4,2.2,0.6,4.5,0.6,6.9V316.8z"/>
	</g>
	<g>
		<path class="st0" d="M222.4,317.7c-3.8,0-7.3-0.7-10.3-1.9c-3.1-1.3-5.7-3.1-7.9-5.3c-2.2-2.2-3.9-4.8-5-7.8
			c-1.2-3-1.8-6.1-1.8-9.3c0-3.4,0.6-6.6,1.7-9.6c1.1-3,2.8-5.6,5-7.9c2.2-2.3,4.8-4.1,7.9-5.4c3.1-1.3,6.6-2,10.5-2
			c3.9,0,7.3,0.7,10.4,2c3.1,1.3,5.7,3.1,7.8,5.4c2.1,2.2,3.8,4.8,4.9,7.8c1.1,3,1.7,6,1.7,9.2c0,0.8,0,1.5,0,2.3
			c0,0.7-0.1,1.3-0.2,1.8h-36.7c0.2,1.9,0.6,3.5,1.4,5c0.7,1.5,1.7,2.7,2.8,3.7c1.1,1,2.4,1.8,3.9,2.4c1.5,0.5,3,0.8,4.5,0.8
			c2.4,0,4.7-0.6,6.8-1.8c2.1-1.2,3.6-2.7,4.4-4.7l10.4,2.9c-1.8,3.6-4.5,6.6-8.4,8.9C232.3,316.6,227.7,317.7,222.4,317.7z
			 M234.7,289.1c-0.3-3.6-1.6-6.4-3.9-8.6c-2.3-2.1-5.2-3.2-8.5-3.2c-1.6,0-3.2,0.3-4.6,0.9c-1.4,0.6-2.7,1.4-3.8,2.4
			c-1.1,1-2,2.3-2.7,3.7c-0.7,1.5-1.1,3.1-1.2,4.8H234.7z"/>
	</g>
	<g>
		<path class="st0" d="M289,317.7c-4,0-7.9-0.6-11.7-1.9c-3.8-1.3-7.1-3.1-9.8-5.4l4.5-7.6c2.9,2.1,5.7,3.6,8.5,4.7
			c2.8,1.1,5.5,1.6,8.2,1.6c2.4,0,4.3-0.5,5.7-1.4c1.4-0.9,2.1-2.2,2.1-3.9c0-1.7-0.8-2.9-2.4-3.7c-1.6-0.8-4.3-1.7-8-2.7
			c-3.1-0.8-5.7-1.7-7.9-2.4c-2.2-0.8-3.9-1.7-5.3-2.7c-1.3-1-2.3-2.1-2.9-3.4c-0.6-1.3-0.9-2.9-0.9-4.7c0-2.4,0.5-4.6,1.4-6.5
			c0.9-1.9,2.3-3.6,3.9-4.9c1.7-1.4,3.7-2.4,5.9-3.1c2.3-0.7,4.7-1.1,7.4-1.1c3.6,0,6.9,0.5,10,1.5c3.1,1,6,2.7,8.6,5l-4.9,7.3
			c-2.4-1.8-4.8-3.1-7-4c-2.3-0.8-4.5-1.3-6.8-1.3c-2.1,0-3.8,0.4-5.2,1.3c-1.4,0.8-2.1,2.2-2.1,4.1c0,0.8,0.2,1.5,0.5,2.1
			c0.3,0.5,0.9,1,1.6,1.5c0.7,0.4,1.7,0.8,2.9,1.2c1.2,0.4,2.6,0.8,4.4,1.2c3.3,0.8,6.1,1.7,8.4,2.5c2.3,0.8,4.2,1.8,5.7,2.9
			c1.5,1.1,2.6,2.3,3.3,3.8c0.7,1.4,1,3.1,1,5.1c0,4.7-1.7,8.3-5.2,11C299.6,316.4,294.9,317.7,289,317.7z"/>
	</g>
	<g>
		<path class="st0" d="M326.3,317.7c-2.3,0-4.4-0.4-6.4-1.1s-3.7-1.8-5.2-3.2c-1.5-1.4-2.6-2.9-3.4-4.8s-1.2-3.8-1.2-6
			c0-2.2,0.5-4.3,1.5-6.2c1-1.9,2.4-3.5,4.2-4.9c1.8-1.3,3.9-2.4,6.4-3.1c2.5-0.8,5.2-1.1,8.2-1.1c2.1,0,4.2,0.2,6.2,0.5
			c2,0.4,3.8,0.9,5.4,1.5v-2.7c0-3.1-0.9-5.6-2.7-7.3c-1.8-1.7-4.4-2.5-7.9-2.5c-2.5,0-5,0.5-7.4,1.4c-2.4,0.9-4.9,2.2-7.4,4
			l-3.7-7.7c6.1-4,12.7-6.1,19.8-6.1c6.8,0,12.1,1.7,15.9,5c3.8,3.4,5.7,8.2,5.7,14.6v14.8c0,1.3,0.2,2.2,0.7,2.7
			c0.5,0.5,1.2,0.8,2.2,0.9v10.3c-2.1,0.4-3.8,0.6-5.4,0.6c-2.3,0-4.1-0.5-5.3-1.5c-1.2-1-2-2.4-2.3-4.1l-0.3-2.6
			c-2.1,2.8-4.7,4.9-7.7,6.3C333,317,329.8,317.7,326.3,317.7z M329.8,308.8c2.1,0,4-0.4,5.8-1.1c1.8-0.7,3.3-1.7,4.3-2.9
			c1.3-1,2-2.2,2-3.4V296c-1.5-0.5-3-1-4.7-1.3c-1.7-0.3-3.3-0.5-4.9-0.5c-3.1,0-5.7,0.7-7.7,2.1c-2,1.4-3,3.2-3,5.4
			c0,2.1,0.8,3.8,2.4,5.1C325.6,308.2,327.5,308.8,329.8,308.8z"/>
	</g>
	<g>
		<path class="st0" d="M362.7,262.7v-12.1h12.2v12.1H362.7z M362.7,316.8v-47.5h12.2v47.5H362.7z"/>
	</g>
	<g>
		<path class="st0" d="M402.8,317.7c-3.3,0-6.3-0.6-9.1-1.9c-2.8-1.3-5.2-3-7.2-5.3c-2-2.2-3.6-4.9-4.7-7.8c-1.1-3-1.7-6.2-1.7-9.7
			c0-3.4,0.5-6.7,1.6-9.6c1.1-3,2.5-5.6,4.4-7.8c1.9-2.2,4.1-4,6.7-5.3c2.6-1.3,5.4-1.9,8.5-1.9c3.5,0,6.7,0.8,9.5,2.5
			c2.8,1.7,5,3.9,6.6,6.6v-27h12.2v52.2c0,1.3,0.2,2.2,0.6,2.7c0.4,0.5,1.1,0.8,2.2,0.9v10.3c-2.1,0.4-3.8,0.6-5.2,0.6
			c-2.2,0-4-0.5-5.4-1.6c-1.4-1.1-2.2-2.5-2.4-4.3l-0.3-3c-1.8,3-4.1,5.3-7.1,6.8C409.2,317,406,317.7,402.8,317.7z M406,307.4
			c1.1,0,2.3-0.2,3.5-0.6c1.2-0.4,2.3-1,3.4-1.7c1-0.7,1.9-1.6,2.8-2.5c0.8-1,1.4-2,1.9-3.2v-11.3c-0.5-1.3-1.2-2.6-2-3.7
			c-0.9-1.1-1.9-2.1-3-2.9c-1.1-0.8-2.3-1.5-3.5-1.9c-1.2-0.5-2.5-0.7-3.7-0.7c-1.8,0-3.5,0.4-5,1.2c-1.5,0.8-2.9,1.9-3.9,3.2
			c-1.1,1.4-1.9,2.9-2.5,4.7c-0.6,1.8-0.9,3.6-0.9,5.4c0,2,0.3,3.8,1,5.5c0.7,1.7,1.6,3.2,2.7,4.4c1.1,1.3,2.5,2.3,4.1,3
			C402.3,307,404,307.4,406,307.4z"/>
	</g>
	<g>
		<path class="st0" d="M438.6,316.8v-13.1h10v13.1H438.6z"/>
	</g>
</g>
</svg>
