<?xml version="1.0" encoding="utf-8"?>
<!-- Generator: Adobe Illustrator 21.0.2, SVG Export Plug-In . SVG Version: 6.00 Build 0)  -->
<svg version="1.1" id="Layer_1" xmlns="http://www.w3.org/2000/svg" xmlns:xlink="http://www.w3.org/1999/xlink" x="0px" y="0px"
	 viewBox="0 0 1822 235" style="enable-background:new 0 0 1822 235;" xml:space="preserve">
<style type="text/css">
	.st0{fill:#FC852E;}
</style>
<g>
	<g>
		<path class="st0" d="M509.5,43.3c-1.2-3.7-3.9-6.6-7.5-8l-37.7-14.2c-6.2-2.3-13.2-0.8-17.8,3.8l-0.5,0.5
			c-15.1-3.7-30.8-3.7-45.9,0l-0.5-0.5c-4.7-4.7-11.7-6.2-17.8-3.8L344,35.4c-3.6,1.4-6.4,4.3-7.5,8c-1.2,3.7-0.6,7.6,1.6,10.8
			c9.6,14,15.9,24.7,18,30.1c0.4,1.1,1.4,2,2.6,2.4c1.2,0.3,2.4,0.1,3.4-0.7c2-1.6,4-3.5,5.8-5.6l0.3,68c-2.9,9.3-3.2,19.9-0.8,31.4
			c0.3,1.4,1.3,2.5,2.6,2.9l10.5,3.2c1.3,0.4,2.7,0.7,4.1,0.8c3.7,7.8,10.3,14,18.5,17.1l0.4,0.2c3.1,1.2,6.1,2.6,9,4.3
			s5.6,3.6,8.2,5.7c0.7,0.6,1.6,0.9,2.4,0.9c0.9,0,1.7-0.3,2.4-0.9c5.1-4.2,10.9-7.6,17.1-10l0.4-0.2c8.1-3.1,14.7-9.3,18.5-17.1
			c1.2-0.1,2.4-0.4,3.6-0.8l10.9-3.4c1.3-0.4,2.4-1.5,2.6-2.9c2.3-11.5,2.1-22.1-0.8-31.4l0.3-68c1.9,2.1,3.8,4,5.8,5.6
			c0.7,0.5,1.5,0.8,2.4,0.8c0.3,0,0.7,0,1-0.1c1.2-0.3,2.1-1.2,2.6-2.4c2-5.4,8.4-16,18-30.1C510.1,51,510.6,47,509.5,43.3
			L509.5,43.3z M440.2,196.7l-0.4,0.2c-6,2.3-11.7,5.4-16.8,9.3c-2.2-1.6-4.4-3.1-6.7-4.5c-3.2-1.9-6.6-3.5-10.1-4.8l-0.4-0.2
			c-5.4-2.1-10-5.9-13-10.8c2-0.6,3.9-1.5,5.7-2.8l5.1-3.5c5.1,5,12.1,7.8,19.5,7.8s14.5-2.9,19.5-7.8l5.5,3.8
			c1.6,1.1,3.4,2,5.2,2.6C450.2,190.8,445.6,194.6,440.2,196.7L440.2,196.7z M423,155.6c-5.9,0-10.6-4.3-10.6-9.6
			c0-2.7,0.5-4,10.6-4s10.6,1.4,10.6,4C433.6,151.3,428.8,155.6,423,155.6L423,155.6z M423,170.3c2.7,3.2,6.8,5.2,11.2,5.2
			c0.5,0,0.9,0,1.3,0.1c-3.5,2.7-7.9,4.2-12.6,4.2s-9.1-1.5-12.6-4.2c0.4-0.1,0.9-0.1,1.3-0.1C416.2,175.4,420.2,173.4,423,170.3
			L423,170.3z M501.5,49.8c-5.7,8.3-12.6,18.9-16.5,26.7c-13.5-14.1-22.5-42.4-22.6-42.7c-0.6-2-2.8-3.2-4.8-2.5
			c-2,0.6-3.2,2.8-2.5,4.8c0.3,1,6,18.8,15.4,34l-0.3,63.4c-2.5-3.4-5.5-6.6-9-9.4c-1.6-1.4-4.1-1.1-5.4,0.5
			c-1.4,1.6-1.1,4.1,0.5,5.4c13.5,11.2,18.6,26.7,15.2,46.2l-8.7,2.7c-3.6,1.1-7.4,0.5-10.5-1.6l-9.7-6.7c-2.5-1.7-5.4-2.6-8.4-2.6
			c-3.1,0-5.9-2.1-6.8-5c8-1.9,13.9-8.7,13.9-16.7c0-5-2.3-8.5-6.6-10.3c-3.3-1.3-7.4-1.4-11.6-1.4s-8.3,0.1-11.6,1.4
			c-4.4,1.7-6.7,5.3-6.7,10.3c0,8.1,5.9,14.9,13.9,16.7c-0.9,2.9-3.7,5-6.8,5c-3,0-5.9,0.9-8.4,2.6l-9.3,6.4
			c-3.3,2.3-7.5,3-11.4,1.8l-8.2-2.5c-3.4-19.4,1.8-35,15.2-46.2c1.6-1.4,1.9-3.8,0.5-5.4s-3.8-1.9-5.4-0.5c-3.5,2.9-6.5,6-9,9.4
			L375.5,70c9.5-15.1,15.1-32.9,15.4-34c0.6-2-0.5-4.2-2.5-4.8c-2-0.6-4.2,0.5-4.8,2.5c-0.1,0.3-9.1,28.7-22.6,42.7
			c-4-7.8-10.9-18.4-16.5-26.7c-0.8-1.2-1.1-2.8-0.6-4.2s1.5-2.6,2.9-3.1l37.7-14.2c3.4-1.3,7.1-0.4,9.7,2.1l2.1,2.1
			c1,1,2.4,1.4,3.7,1c15.1-4.1,31.1-4.1,46.2,0c1.3,0.4,2.8,0,3.7-1l2.1-2.1c2.5-2.5,6.3-3.4,9.7-2.1l37.7,14.2
			c1.4,0.5,2.5,1.7,2.9,3.1C502.6,47.1,502.4,48.6,501.5,49.8L501.5,49.8z"/>
	</g>
	<path class="st0" d="M394.8,63.4l-13.1,8.5c-1.8,1.2-2.3,3.5-1.1,5.3c0.7,1.1,2,1.7,3.2,1.7c0.7,0,1.4-0.2,2.1-0.6l13.1-8.5
		c0.5-0.3,1.2-0.2,1.6,0.2c1.4,1.6,3.8,1.7,5.4,0.3c1.6-1.4,1.7-3.8,0.3-5.4C403.4,61.7,398.4,61,394.8,63.4L394.8,63.4z"/>
	<path class="st0" d="M439.7,64.9c-1.4,1.6-1.3,4,0.3,5.4c1.6,1.4,4,1.3,5.4-0.3c0.4-0.5,1.1-0.5,1.6-0.2l13.1,8.5
		c0.6,0.4,1.4,0.6,2.1,0.6c1.3,0,2.5-0.6,3.2-1.7c1.2-1.8,0.7-4.2-1.1-5.3l-13.1-8.5C447.5,61,442.6,61.6,439.7,64.9L439.7,64.9z"/>
	<path class="st0" d="M395.8,74c-3.7,0-6.7,3-6.7,6.7s3,6.7,6.7,6.7c2.5,0,5-2.1,5-6.7S398.3,74,395.8,74L395.8,74z M395.8,81.7
		c-1,0-1.8-0.5-2.3-1c0.5-0.5,1.3-1,2.3-1c0.5,0,1,0.4,1,1C396.8,81.2,396.4,81.7,395.8,81.7L395.8,81.7z"/>
	<path class="st0" d="M450.1,74c-1.6,0-3.6,0.9-4.5,3.4c-0.4,1.2-0.5,2.5-0.5,3.3c0,4.6,2.5,6.7,5,6.7c3.7,0,6.7-3,6.7-6.7
		C456.8,77,453.8,74,450.1,74L450.1,74z M450.1,81.7c-0.5,0-1-0.4-1-1c0-0.5,0.4-1,1-1c1,0,1.8,0.5,2.3,1
		C452,81.2,451.2,81.7,450.1,81.7L450.1,81.7z"/>
</g>
<g>
	<g>
		<path class="st0" d="M833.9,145.9l-3.4-39.4c-0.6-6.9-3-13.5-7.1-19.2c3.9-21.8-2.7-43.9-19.7-65.7c-1.3-1.7-3.7-2-5.4-0.7
			c-12.1,9.4-19,19-23,27.1c-1.8-0.8-3.7-1.4-5.6-1.8c-14.1-3-28.3-3-42.4,0c-1.9,0.4-3.8,1-5.6,1.8c-3.9-8.2-10.8-17.8-23-27.1
			c-1.7-1.3-4.1-1-5.4,0.7c-17,21.8-23.6,43.8-19.7,65.7c-4,5.7-6.5,12.3-7.1,19.2l-3.4,39.4c-1,11.5,3.1,22.8,11.3,30.9l26.7,26.7
			c7.4,7.4,17.1,11.4,27.6,11.4h39.6c10.4,0,20.2-4.1,27.6-11.4l26.7-26.7C830.8,168.6,834.9,157.3,833.9,145.9L833.9,145.9z
			 M800,29.5c6.1,8.3,10.5,16.4,13.3,24.6c4,11.8,4.6,23.8,1.8,35.5l-24.3-14.9c1.6-4,2.5-8.6,2.5-13.3c0-7.3-2-14-5.6-18.9
			C790.8,38.3,794.8,33.9,800,29.5L800,29.5z M783.2,49.8c1.6,3.3,2.5,7.3,2.5,11.6c0,3.3-0.5,6.4-1.5,9.2l-6.1-3.8
			C778.2,63.9,779.1,57.6,783.2,49.8L783.2,49.8z M713.5,70.3c-0.9-2.7-1.4-5.8-1.4-8.9c0-4,0.8-7.8,2.2-11c1,1.9,1.7,3.6,2.3,5.2
			c1.9,5,2.4,9.1,2.6,11.3L713.5,70.3z M683.9,54.1c2.8-8.2,7.1-16.3,13.3-24.6c5.4,4.6,9.5,9.2,12.6,13.4
			c-3.4,4.9-5.3,11.4-5.3,18.5c0,4.6,0.8,9.1,2.4,13l-24.7,15.2C679.3,77.8,679.9,65.9,683.9,54.1L683.9,54.1z M817.2,171.3
			L790.5,198c-5.9,5.9-13.8,9.2-22.1,9.2h-39.6c-8.3,0-16.2-3.3-22.1-9.2L680,171.3c-6.5-6.5-9.8-15.6-9-24.8l3.4-39.4
			c0.3-3.2,1.1-6.4,2.3-9.3c0.4,0.6,1.1,1.1,1.8,1.4c0.4,0.2,0.9,0.2,1.3,0.2c0.7,0,1.4-0.2,2-0.6l43.3-26.6c1.1-0.6,1.7-1.8,1.8-3
			c0-0.5,0.4-6-2.2-14c1.4-0.6,2.8-1.1,4.3-1.4c13-2.7,26.2-2.7,39.2,0c1.5,0.3,2.9,0.8,4.3,1.4c-2.6,8.1-2.3,13.6-2.2,14
			c0.1,1.2,0.8,2.4,1.8,3l43.3,26.6c0.6,0.4,1.3,0.6,2,0.6c0.5,0,0.9-0.1,1.3-0.2c0.7-0.3,1.3-0.7,1.8-1.4c1.2,3,2,6.1,2.3,9.3
			l3.4,39.4C827,155.7,823.8,164.8,817.2,171.3L817.2,171.3z"/>
	</g>
	<path class="st0" d="M770,125.3c-4.5-7.5-12.7-12.2-21.4-12.2c-4.3,0-8.6,1.1-12.3,3.3c-3.7,2.1-6.9,5.2-9.1,8.9l-8.8,15
		c-3.3,5.6-4.3,12.1-2.8,18.4l2.4,10.2c0.3,1.3,1.2,2.3,2.5,2.8l0,0c2.5,0.9,5.3,0.8,7.7-0.4c0.5-0.2,0.9-0.5,1.3-0.7
		c4,6.1,11.2,9.9,19.2,9.9s15.1-3.9,19.2-9.9c0.4,0.3,0.8,0.5,1.3,0.7c1.4,0.7,2.8,1,4.3,1c1.1,0,2.3-0.2,3.4-0.6l0,0
		c1.2-0.4,2.2-1.5,2.5-2.8l2.4-10.2c1.5-6.3,0.5-12.8-2.8-18.4L770,125.3z M748.6,172.7c-6.2,0-11.7-3.5-13.9-8.6
		c0.2-0.1,0.5-0.1,0.7-0.1l1.4-0.1c4.8-0.2,9-2.5,11.8-5.8c2.8,3.4,7,5.6,11.8,5.8l1.4,0.1c0.2,0,0.5,0.1,0.7,0.1
		C760.3,169.2,754.8,172.7,748.6,172.7L748.6,172.7z M748.6,143.6c-3.9,0-7-2.8-7-6.2c0-4,4.9-4.4,7-4.4s7,0.4,7,4.4
		C755.6,140.8,752.5,143.6,748.6,143.6L748.6,143.6z M774.2,156.9l-1.7,7.4c0,0,0,0-0.1,0c-0.6-0.3-1-0.7-1.2-1.3
		c-1.4-3.9-4.9-6.5-9-6.7l-1.4-0.1c-3.5-0.2-6.5-2.4-7.7-5.5c5.9-1.8,10.3-7.1,10.3-13.3c0-7.2-5.9-12.1-14.7-12.1
		s-14.7,4.9-14.7,12.1c0,6.2,4.3,11.5,10.3,13.3c-1.2,3.1-4.2,5.4-7.7,5.5l-1.4,0.1c-4.1,0.2-7.6,2.8-9,6.7
		c-0.2,0.6-0.6,1.1-1.2,1.3c0,0,0,0-0.1,0l-1.7-7.4c-1-4.3-0.3-8.9,1.9-12.7l8.8-14.9c1.5-2.6,3.7-4.7,6.3-6.2s5.5-2.3,8.5-2.3
		c6,0,11.7,3.2,14.8,8.4l8.8,14.9C774.5,148.1,775.2,152.6,774.2,156.9L774.2,156.9z"/>
	<path class="st0" d="M723.3,121.7c2.1,0,3.8-1.6,3.9-3.7c0.1-2.1-1.6-3.9-3.7-4l-12-0.4c-2.1-0.1-3.9,1.6-4,3.7s1.6,3.9,3.7,4
		L723.3,121.7C723.2,121.7,723.2,121.7,723.3,121.7L723.3,121.7z"/>
	<path class="st0" d="M785.8,113.6l-12,0.4c-2.1,0.1-3.8,1.9-3.7,4s1.8,3.7,3.9,3.7h0.1l12-0.4c2.1-0.1,3.8-1.9,3.7-4
		S787.9,113.5,785.8,113.6L785.8,113.6z"/>
</g>
<g>
	<path class="st0" d="M1128.1,80.7c-3.4-4.1-8.6-5.9-13.9-5c-5.3,1-9.4,4.5-11.2,9.6c-2.2,6.5-5.9,11.8-5.9,11.8
		c-0.8,1.1-1,2.6-0.6,3.9s1.4,2.4,2.7,3c4.3,1.7,8.3,2.4,11.9,2.4c10.7,0,18.7-5.9,22-10.1c0.7-0.9,1.1-2.1,1-3.2
		C1134,92.6,1133.5,87.2,1128.1,80.7L1128.1,80.7z M1107.9,97c1.3-2.4,2.7-5.4,3.9-8.7c0.6-1.9,2.2-3.2,4.2-3.5
		c2-0.4,3.9,0.3,5.2,1.8c1.9,2.3,2.9,4.2,3.4,5.6C1121.9,94.4,1116.1,98.3,1107.9,97L1107.9,97z"/>
	<g>
		<path class="st0" d="M1052,101.1c0.4-1.3,0.2-2.8-0.7-3.9c0,0-3.7-5.2-5.9-11.8c-1.7-5-5.9-8.6-11.2-9.6c-5.3-1-10.4,0.9-13.9,5
			c-5.4,6.5-6,11.8-6,12.4c-0.1,1.2,0.3,2.3,1,3.2c0.3,0.4,3.5,4.2,9.1,7.1c3.2,1.6,7.5,3,12.8,3c3.6,0,7.6-0.7,12-2.4
			C1050.6,103.5,1051.6,102.4,1052,101.1L1052,101.1z M1024,92.2c0.5-1.3,1.5-3.3,3.4-5.6c1.3-1.5,3.2-2.2,5.2-1.8
			c2,0.4,3.5,1.7,4.1,3.5c1.1,3.3,2.6,6.3,3.9,8.7C1032.3,98.4,1026.6,94.5,1024,92.2L1024,92.2z"/>
		<path class="st0" d="M1186.3,33.1c-2.8-3.8-7.2-6.1-11.9-6.4l-36.6-2.1l-32.9-3.4c-7-1.8-14.4-1.5-21.4,0.9
			c-6,2.1-12.6,2.1-18.6,0c-7-2.4-14.4-2.7-21.4-0.9l-32.9,3.4L974,26.7c-4.7,0.3-9,2.6-11.9,6.4c-2.8,3.8-3.8,8.6-2.7,13.2l14.6,62
			c1.1,4.8,5,8.1,9.9,8.5c0.3,0,0.6,0,0.9,0c3.2,0,6.2-1.4,8.2-3.7l3.5,38.6c0.9,9.9,7.1,18.3,16.3,22.1l16.2,6.7
			c0.8,3.8,2.3,7.5,4.7,10.7c4.4,6,10.9,9.8,18.2,10.8c4.2,7.8,12.7,12.9,22.2,12.9s18.1-5.1,22.2-12.9c7.3-1,13.8-4.8,18.2-10.8
			c2.4-3.2,3.9-6.9,4.7-10.7l16.2-6.7c9.2-3.8,15.4-12.2,16.3-22.1l3.5-38.6c2.1,2.3,5,3.7,8.2,3.7c0.3,0,0.6,0,0.9,0
			c4.9-0.4,8.8-3.7,9.9-8.5l14.6-62C1190.2,41.7,1189.2,36.9,1186.3,33.1L1186.3,33.1z M1089.9,156.2c0,7.8-7,14.2-15.7,14.2
			s-15.7-6.4-15.7-14.2c0-4.5,1.5-6.5,15.7-6.5C1088.4,149.8,1089.9,151.7,1089.9,156.2L1089.9,156.2z M986.6,106.5
			c-0.5,1.1-1.4,1.2-1.9,1.2s-1.4-0.3-1.7-1.5l-14.6-62c-0.5-2,0-4,1.2-5.6s3-2.6,5.1-2.7l36.7-2.1c1.6-0.1,2.5,0.9,2.9,1.4
			c0.3,0.4,1,1.6,0.4,3.2l-2.4,5.8L986.6,106.5z M1054.4,193c-5.3-0.3-10.1-3-13.2-7.2c-3.1-4.3-4.2-9.7-2.9-14.8l9.7-39.4
			c0.6-2.5-0.9-4.9-3.4-5.5s-4.9,0.9-5.5,3.3l-9.7,39.4c-0.1,0.6-0.3,1.2-0.4,1.8l-12.7-5.2c-6-2.5-10.1-8-10.7-14.5l-4.6-51.1
			c-0.2-1.9,0-3.7,0.4-5.5l19.1-46.8l3.2-7.7l16.7-7.8c6.8-3.2,14.4-3.6,21.5-1.2c2.5,0.9,5.1,1.4,7.7,1.8v108.1
			c-9.1,0.3-20.3,2.3-20.3,15.6c0,11.5,8.8,21,20.4,23v2.5C1068.1,188.7,1061.6,193.5,1054.4,193L1054.4,193z M1074.2,205.7
			c-4.5,0-8.7-1.8-11.6-4.7c4.6-1.5,8.6-4.3,11.6-8c3,3.8,7,6.6,11.6,8C1082.9,204,1078.7,205.7,1074.2,205.7L1074.2,205.7z
			 M1147.4,99.8l-4.6,51.1c-0.6,6.5-4.7,12-10.7,14.5l-12.7,5.2c-0.1-0.6-0.2-1.2-0.4-1.8l-9.7-39.4c-0.6-2.5-3.1-4-5.5-3.3
			c-2.5,0.6-4,3.1-3.3,5.5l9.7,39.4c1.3,5.1,0.2,10.5-2.9,14.8s-8,6.9-13.2,7.2c-7.2,0.4-13.7-4.3-15.4-11.3v-2.5
			c11.6-2,20.4-11.5,20.4-23c0-13.3-11.2-15.3-20.3-15.6v-108c2.6-0.3,5.2-0.9,7.7-1.8c7.1-2.4,14.7-2,21.5,1.2l16.7,7.8l3.2,7.6
			l19.2,46.8C1147.4,96.1,1147.5,98,1147.4,99.8L1147.4,99.8z M1180.2,44.2l-14.6,62c-0.3,1.2-1.2,1.4-1.7,1.5
			c-0.5,0-1.5-0.1-1.9-1.2L1136.3,44l-2.3-5.7c-0.6-1.5,0.1-2.7,0.4-3.2c0.3-0.4,1.2-1.4,2.7-1.4c0.1,0,0.1,0,0.2,0l36.7,2.1
			c2,0.1,3.9,1.1,5.1,2.7C1180.2,40.2,1180.6,42.2,1180.2,44.2L1180.2,44.2z"/>
	</g>
	<path class="st0" d="M1040.2,67.5c0.6,0,1.2-0.1,1.8-0.4l6.3-2.7c2.3-1,3.4-3.7,2.4-6s-3.7-3.4-6-2.4l-6.3,2.7
		c-2.3,1-3.4,3.7-2.4,6C1036.7,66.5,1038.4,67.5,1040.2,67.5L1040.2,67.5z"/>
	<path class="st0" d="M1100.2,64.5l6.3,2.7c0.6,0.3,1.2,0.4,1.8,0.4c1.8,0,3.5-1,4.2-2.8c1-2.3-0.1-5-2.4-6l-6.3-2.7
		c-2.3-1-5,0.1-6,2.4C1096.8,60.8,1097.9,63.5,1100.2,64.5L1100.2,64.5z"/>
</g>
<g>
	<g>
		<path class="st0" d="M1472.8,111l-5-5l6.2-6.5c4.7-4.9,6.7-11.9,5.3-18.5c-3-14.6-8.9-41.6-14-58.1c-0.4-1.2-1.3-2.2-2.6-2.6
			c-1.2-0.4-2.6-0.1-3.6,0.6c-24,18.6-31.1,37-33.1,45.8c-16.1-9.2-36.1-9.1-52.1,0.1c-2-8.7-9-27.3-33.2-46c-1-0.8-2.4-1-3.6-0.6
			s-2.2,1.3-2.6,2.6c-5.2,16.5-11,43.5-14,58.1c-1.4,6.7,0.6,13.6,5.3,18.5l6.3,6.6l-5.1,5.1c-16.6,16.6-16.6,43.5,0,60.1l22.8,22.8
			c13.3,13.3,31.1,20.7,50,20.7s36.6-7.3,50-20.7l23.1-23.1c8-8,12.4-18.7,12.4-30.1C1485.2,129.7,1480.8,119,1472.8,111L1472.8,111
			z M1459.4,30.8c4.6,16.2,9.5,38.9,12.2,51.8c0.9,4.1-0.4,8.4-3.3,11.5l-6,6.3L1451.8,90l8.1-27.6c0.6-2.1-0.6-4.3-2.7-4.9
			c-2.1-0.6-4.3,0.6-4.9,2.7l-6.9,23.5l-8.4-8.4c-1.3-1.3-2.6-2.5-4-3.6C1433.5,67.7,1436.9,49.9,1459.4,30.8L1459.4,30.8z
			 M1331.4,94.1c-2.9-3.1-4.2-7.4-3.3-11.5c2.7-12.9,7.6-35.6,12.2-51.8c12.4,10.6,18.9,20.7,22.2,27.6c3.2,6.8,4,11.7,4.2,13.4
			c-1.3,1.1-2.6,2.2-3.8,3.4l-8.6,8.6l-7-23.7c-0.6-2.1-2.8-3.3-4.9-2.7s-3.3,2.8-2.7,4.9l8.2,27.9l-10.4,10.4L1331.4,94.1z
			 M1332.4,116.8l36-36c8.4-8.4,19.6-13.1,31.5-13.1s23.1,4.6,31.5,13.1l35.7,35.7c3.6,3.6,6.3,7.9,8,12.4l-2.9-1.4
			c-13.8-6.8-26-16-36.4-27.4c-3.7-4.1-9.2-6.1-14.6-5.4c-5.5,0.7-10.3,4-12.8,8.9l-8.8,16.5l-8.8-16.5c-2.6-4.9-7.4-8.2-12.8-8.9
			c-5.5-0.7-10.9,1.3-14.6,5.4c-10.4,11.3-22.6,20.6-36.4,27.4l-2.4,1.2C1326.4,124.3,1329,120.2,1332.4,116.8L1332.4,116.8z
			 M1467.2,165.5l-23.1,23.1c-11.9,11.9-27.6,18.4-44.4,18.4s-32.5-6.5-44.4-18.4l-22.8-22.8c-6.5-6.5-10.2-15.2-10.2-24.5
			c0-0.9,0-1.8,0.1-2.7l8.1-4c14.7-7.2,27.7-17,38.7-29.1c2-2.2,4.9-3.3,7.9-2.9s5.5,2.1,6.9,4.8l12.2,23.1c0.7,1.3,2,2.1,3.5,2.1
			s2.8-0.8,3.5-2.1l12.2-23.1c1.4-2.6,3.9-4.4,6.9-4.8s5.8,0.7,7.9,2.9c11,12.1,24,21.9,38.7,29.1l8.4,4.2
			C1477.9,148.3,1474.6,158.2,1467.2,165.5L1467.2,165.5z"/>
	</g>
	<path class="st0" d="M1399.8,108.6c2.2,0,3.9-1.8,3.9-3.9V79.6c0-2.2-1.8-3.9-3.9-3.9c-2.2,0-3.9,1.8-3.9,3.9v25.2
		C1395.9,106.9,1397.7,108.6,1399.8,108.6L1399.8,108.6z"/>
	<path class="st0" d="M1414.6,143.6c-3.4-5-8.9-7.9-14.9-7.9s-11.6,3-14.9,7.9l-15.3,22.7c-4.9,7.3-4,17,2.2,23.3
		c3.4,3.4,8,4.9,12.4,4.6c4.1,4.2,9.7,6.6,15.6,6.6l0,0c5.9,0,11.5-2.4,15.6-6.6c0.4,0,0.8,0.1,1.3,0.1c4.1,0,8.1-1.5,11.2-4.6
		c6.2-6.2,7.1-16,2.2-23.3L1414.6,143.6z M1399.7,192.9c-2.6,0-5-0.7-7.2-2c0.5-0.4,1-0.8,1.5-1.3l5.6-5.6l5.6,5.6
		c0.5,0.5,1,0.9,1.5,1.3C1404.7,192.2,1402.3,192.9,1399.7,192.9L1399.7,192.9z M1399.7,173.8c-3.2,0-5.8-2.3-5.8-5.1
		c0-1,0.6-3.4,5.8-3.4c5.2,0,5.8,2.4,5.8,3.4C1405.5,171.5,1402.9,173.8,1399.7,173.8L1399.7,173.8z M1422.2,184
		c-3.1,3.1-8.2,3.1-11.3,0l-4.2-4.2c4-2.3,6.6-6.4,6.6-11.1c0-6.7-5.5-11.3-13.6-11.3s-13.6,4.5-13.6,11.3c0,4.7,2.7,8.8,6.6,11.1
		l-4.2,4.2c-3.1,3.1-8.2,3.1-11.3,0c-3.5-3.6-4.1-9.1-1.3-13.3l15.3-22.7c1.9-2.8,5-4.5,8.4-4.5s6.5,1.6,8.4,4.5l15.3,22.7
		C1426.3,174.9,1425.7,180.5,1422.2,184L1422.2,184z"/>
	<path class="st0" d="M1377.6,140.6l5-3.1c0.9-0.6,1.5-1.4,1.7-2.4s0.1-2.1-0.5-3c-6.2-10-19.3-13-29.3-6.8
		c-1.8,1.1-2.4,3.6-1.3,5.4l3.1,5c2.9,4.7,7.9,7.2,13.1,7.2C1372.3,142.9,1375.1,142.2,1377.6,140.6L1377.6,140.6z M1363.1,131.5
		l-0.7-1.2c4.3-1.1,8.9-0.1,12.3,2.9l-1.2,0.7C1369.9,136.1,1365.3,135,1363.1,131.5L1363.1,131.5z"/>
	<path class="st0" d="M1444.8,125.3c-4.8-3-10.5-3.9-16.1-2.7c-5.5,1.3-10.2,4.7-13.2,9.5c-1.1,1.8-0.6,4.3,1.3,5.4l5,3.1
		c2.5,1.5,5.3,2.3,8.1,2.3c1.2,0,2.3-0.1,3.5-0.4c4-0.9,7.4-3.4,9.6-6.9l3.1-5C1447.3,128.8,1446.7,126.4,1444.8,125.3L1444.8,125.3
		z M1436.3,131.5c-1.1,1.7-2.7,2.9-4.7,3.4s-4,0.1-5.7-0.9l-1.2-0.7c1.6-1.4,3.6-2.4,5.8-3c2.2-0.5,4.4-0.5,6.5,0.1L1436.3,131.5z"
		/>
</g>
<g>
	<g>
		<path class="st0" d="M1821.8,189.9l-1.4-11.6c-3.2-26.7-9.7-53-19.1-78.1c-0.8-2-1.8-4.6-3.2-7.8c-2.1-5-6.4-8.5-11.4-9.7
			c1.2-3.1,1.8-6.7,1.8-10.9c0-13.9-6.7-27-18.8-36.8c-11.9-9.6-27.6-14.9-44.3-14.9s-32.4,5.3-44.3,14.9
			c-12.1,9.8-18.8,22.8-18.8,36.8c0,4.2,0.6,7.8,1.8,10.9c-5,1.2-9.3,4.7-11.4,9.7c-1.4,3.2-2.4,5.8-3.2,7.8
			c-9.5,25.1-15.9,51.4-19.1,78.1l-1.4,11.6c-0.8,6.3,1.2,12.7,5.5,17.5c4.2,4.8,10.3,7.5,16.7,7.5h20.9c11.4,0,21-8.5,22.2-19.9
			l2.4-21.9l3.3,9.2c3.8,10.9,13.8,17.9,25.3,17.9s21.5-7,25.3-17.9l3.3-9.3l2.5,21.9c1.3,11.3,10.8,19.9,22.2,19.9h20.9
			c6.4,0,12.5-2.7,16.7-7.5C1820.6,202.6,1822.6,196.2,1821.8,189.9L1821.8,189.9z M1725.5,27.6c30.6,0,55.5,19.8,55.5,44.1
			c0,5.8-1.4,10-4.3,12.9c-6.9,6.8-22.6,6.6-40.8,6.4c-3.4,0-6.9-0.1-10.4-0.1s-7,0-10.4,0.1c-18.2,0.2-33.9,0.4-40.8-6.4
			c-2.9-2.9-4.3-7.1-4.3-12.9C1669.9,47.4,1694.8,27.6,1725.5,27.6L1725.5,27.6z M1765.7,111.2l-1.4-1.4c-2.6-2.6-6.1-4-9.8-4
			c-3.7,0-7.1,1.4-9.8,4l-3.7,3.7c-0.6,0.6-1,2-1,2l-2.1,11.3c-0.4,2,1,4,3,4.4c0.2,0,0.5,0.1,0.7,0.1c1.8,0,3.4-1.3,3.7-3.1l1-5.6
			c2.6,1.2,5.3,1.8,8.1,1.8c3.3,0,6.7-0.9,9.7-2.6c-0.3,1.3-0.7,2.5-1.2,3.8l-18.5,50.4c-1.4,3.7-5,6.2-8.9,6.2c-2.7,0-5-1.7-5.9-4
			c0.3-0.2,0.7-0.5,1-0.8l5.5-5.7c2.3-2.3,2.9-5.8,1.6-8.7c-1.3-3-4.2-4.9-7.4-4.9h-9.9c-3.2,0-6.2,1.9-7.4,4.9
			c-1.3,3-0.6,6.4,1.6,8.7l5.5,5.7c0.3,0.3,0.6,0.6,1,0.8c-1,2.3-3.3,4-5.9,4c-3.9,0-7.5-2.5-8.9-6.2l-18.4-50.3
			c-0.5-1.3-0.8-2.6-1.2-3.9c3,1.8,6.3,2.6,9.6,2.6c2.8,0,5.5-0.6,8.1-1.8l1,5.6c0.3,1.8,1.9,3.1,3.7,3.1c0.2,0,0.5,0,0.7-0.1
			c2-0.4,3.4-2.3,3-4.4l-2.1-11.3c0,0-0.5-1.4-1-2l-3.7-3.7c-2.6-2.6-6.1-4-9.8-4c-3.7,0-7.1,1.4-9.7,4l-1.4,1.4
			c-0.2-4.6,0.3-9.2,1.5-13.6c8.2,1.2,71.7,0.9,77.5,0C1765.4,102,1765.8,106.6,1765.7,111.2L1765.7,111.2z M1759.5,115.6
			c-3.1,1.5-6.8,1.5-10,0l0.5-0.6c1.2-1.2,2.8-1.8,4.4-1.8c1.7,0,3.3,0.7,4.4,1.8L1759.5,115.6z M1725.5,171.7l-5.3-5.5
			c-0.1-0.1-0.2-0.3-0.1-0.6s0.4-0.3,0.5-0.3h9.9c0.1,0,0.4,0,0.5,0.3s0,0.5-0.1,0.6L1725.5,171.7z M1691.4,115.6l0.5-0.6
			c1.2-1.2,2.8-1.8,4.4-1.8c1.7,0,3.3,0.7,4.4,1.8l0.5,0.6C1698.3,117.1,1694.6,117.1,1691.4,115.6L1691.4,115.6z M1687,194.2
			c-0.8,7.5-7.2,13.2-14.8,13.2h-20.9c-4.2,0-8.3-1.8-11.1-5c-2.8-3.2-4.1-7.4-3.6-11.6l1.4-11.6c3.2-26.1,9.5-51.8,18.7-76.4
			c0.7-1.9,1.7-4.4,3-7.5c1.7-4.1,5.7-5.7,9-5.6c0.1,0.1,0.2,0.2,0.2,0.3c2.8,2.8,6.3,4.6,10.5,5.9c-2.7,10.6-2.2,21.8,1.5,32.1
			l10.3,29L1687,194.2z M1714.4,189.4c0.3,0,0.6,0,0.9,0c4,0,7.6-1.7,10.2-4.4c2.5,2.7,6.2,4.4,10.2,4.4c0.3,0,0.6,0,0.9,0
			c-3.5,2.4-7.5,3.4-11.1,3.4C1721.9,192.8,1717.9,191.8,1714.4,189.4L1714.4,189.4z M1810.8,202.4c-2.8,3.2-6.9,5-11.1,5h-20.9
			c-7.6,0-13.9-5.7-14.8-13.2l-4.2-37.3l10.3-29c3.6-10.3,4.1-21.5,1.5-32c4.1-1.3,7.7-3.2,10.4-5.9c0.1-0.1,0.2-0.2,0.2-0.2
			c3.3-0.2,7.3,1.4,9,5.6c1.3,3.1,2.3,5.6,3,7.5c9.3,24.6,15.6,50.3,18.7,76.4l1.4,11.6C1814.9,195,1813.6,199.2,1810.8,202.4
			L1810.8,202.4z"/>
	</g>
</g>
<g>
	<g>
		<g>
			<path class="st0" d="M112.8,115.3c-0.2-0.5-0.5-1-0.8-1.4s-0.7-0.7-1.2-0.9c-0.5-0.2-0.9-0.3-1.4-0.3h-6v9h6.3
				c1,0,1.8-0.4,2.5-1.2c0.6-0.8,1-1.9,1-3.3C113.1,116.5,113,115.8,112.8,115.3z M112.8,115.3c-0.2-0.5-0.5-1-0.8-1.4
				s-0.7-0.7-1.2-0.9c-0.5-0.2-0.9-0.3-1.4-0.3h-6v9h6.3c1,0,1.8-0.4,2.5-1.2c0.6-0.8,1-1.9,1-3.3
				C113.1,116.5,113,115.8,112.8,115.3z M177.9,164.5c8.5-14.3,13.4-31,13.4-48.8c0-52.9-42.8-95.7-95.6-95.7S0,62.9,0,115.8
				c0,52.8,42.8,95.7,95.7,95.7c12.1,0,23.6-2.2,34.3-6.3l-15.7-3.5c-1.8-0.4-2.9-2.2-2.6-4c0.4-1.8,2.2-2.9,4-2.6l24.3,5.4h0.1
				l0.6,0.2l1.1,0.3c0.1,0,0.2,0.1,0.3,0.1l52.6,13.8L177.9,164.5z M54.5,135.7H50L45.1,124l-4.8,11.7h-4.5L24.6,108h5.8l7.9,21.6
				l3.5-8.9L37.1,108h5l3.1,9.2l3.1-9.2h5l-4.7,12.6l3.5,8.9l7.9-21.6h5.9L54.5,135.7z M92.5,122.1c0,1.9-0.2,3.7-0.7,5.4
				c-0.5,1.7-1.2,3.1-2.1,4.4c-1,1.2-2.2,2.2-3.8,3c-1.5,0.7-3.4,1.1-5.5,1.1c-2.2,0-4.1-0.4-5.6-1.2c-1.5-0.7-2.8-1.8-3.8-3
				c-1-1.3-1.7-2.7-2.1-4.4c-0.4-1.7-0.6-3.4-0.6-5.2V108h5.4v14.2c0,1.2,0.1,2.3,0.3,3.4c0.2,1.1,0.6,2,1.1,2.9s1.2,1.5,2.1,2
				s1.9,0.7,3.2,0.7c1.3,0,2.3-0.3,3.2-0.8c0.9-0.5,1.6-1.2,2.1-2c0.5-0.9,0.9-1.8,1.1-2.9s0.3-2.2,0.3-3.4v-14.2h5.3L92.5,122.1
				L92.5,122.1z M117.9,120.6c-0.4,1.1-1,2.1-1.8,2.9s-1.7,1.5-2.7,2.1c-1.1,0.5-2.2,0.8-3.5,0.8h-6.5v9.3H98V108h11.8
				c1.3,0,2.4,0.3,3.5,0.8s2,1.2,2.8,2.1s1.4,1.9,1.9,3c0.4,1.1,0.6,2.2,0.6,3.4C118.6,118.3,118.4,119.5,117.9,120.6z M145.7,135.7
				h-5.4v-11.8h-12.6v11.8h-5.4V108h5.4v11.2h12.6V108h5.4V135.7L145.7,135.7z M170.1,112.7h-13.3v7.1h11v4.4h-11v11.5h-5.4V108H170
				L170.1,112.7L170.1,112.7z M112,113.9c-0.3-0.4-0.7-0.7-1.2-0.9c-0.5-0.2-0.9-0.3-1.4-0.3h-6v9h6.3c1,0,1.8-0.4,2.5-1.2
				c0.6-0.8,1-1.9,1-3.3c0-0.7-0.1-1.3-0.3-1.9C112.5,114.7,112.3,114.2,112,113.9z M112.8,115.3c-0.2-0.5-0.5-1-0.8-1.4
				s-0.7-0.7-1.2-0.9c-0.5-0.2-0.9-0.3-1.4-0.3h-6v9h6.3c1,0,1.8-0.4,2.5-1.2c0.6-0.8,1-1.9,1-3.3
				C113.1,116.5,113,115.8,112.8,115.3z M112.8,115.3c-0.2-0.5-0.5-1-0.8-1.4s-0.7-0.7-1.2-0.9c-0.5-0.2-0.9-0.3-1.4-0.3h-6v9h6.3
				c1,0,1.8-0.4,2.5-1.2c0.6-0.8,1-1.9,1-3.3C113.1,116.5,113,115.8,112.8,115.3z"/>
		</g>
	</g>
</g>
</svg>
