<?xml version="1.0" encoding="utf-8"?>
<!-- Generator: Adobe Illustrator 21.0.2, SVG Export Plug-In . SVG Version: 6.00 Build 0)  -->
<svg version="1.1" id="Capa_1" xmlns="http://www.w3.org/2000/svg" xmlns:xlink="http://www.w3.org/1999/xlink" x="0px" y="0px"
	 viewBox="0 0 382.2 382.2" style="enable-background:new 0 0 382.2 382.2;" xml:space="preserve">
<style type="text/css">
	.st0{fill:#FFFFFF;}
</style>
<g>
	<g>
		<path class="st0" d="M220.1,187.1c-0.4-1-0.9-1.9-1.5-2.7c-0.6-0.7-1.4-1.3-2.2-1.6c-0.9-0.4-1.7-0.6-2.6-0.6h-11.3v16.9h11.8
			c1.9,0,3.4-0.8,4.7-2.3c1.2-1.5,1.9-3.6,1.9-6.2C220.7,189.3,220.5,188.1,220.1,187.1z M220.1,187.1c-0.4-1-0.9-1.9-1.5-2.7
			c-0.6-0.7-1.4-1.3-2.2-1.6c-0.9-0.4-1.7-0.6-2.6-0.6h-11.3v16.9h11.8c1.9,0,3.4-0.8,4.7-2.3c1.2-1.5,1.9-3.6,1.9-6.2
			C220.7,189.3,220.5,188.1,220.1,187.1z M342.5,279.6c16-26.8,25.1-58.2,25.1-91.6C367.6,88.7,287.2,8.3,188,8.3S8.3,88.7,8.3,188
			c0,99.2,80.4,179.7,179.7,179.7c22.7,0,44.4-4.2,64.4-11.9l-29.4-6.5c-3.4-0.8-5.5-4.1-4.8-7.5c0.8-3.4,4.2-5.5,7.5-4.8l45.7,10.2
			h0.1l1.1,0.3l2.1,0.5c0.2,0,0.3,0.1,0.5,0.2l98.8,26L342.5,279.6z M110.6,225.4h-8.5l-9-21.9l-9,21.9h-8.5l-21.1-52.1h10.9
			l14.8,40.5l6.5-16.7L78,173.4h9.3l5.9,17.2l5.9-17.2h9.4l-8.9,23.7l6.6,16.7l14.8-40.5h11L110.6,225.4z M182.1,199.9
			c0,3.6-0.4,6.9-1.3,10.1c-0.9,3.1-2.2,5.9-4,8.2s-4.2,4.2-7.1,5.6c-2.9,1.4-6.3,2.1-10.4,2.1c-4.2,0-7.7-0.7-10.6-2.2
			c-2.9-1.4-5.3-3.3-7.1-5.7s-3.1-5.1-3.9-8.3s-1.2-6.4-1.2-9.8v-26.6h10.1v26.6c0,2.2,0.2,4.3,0.6,6.4c0.4,2,1.1,3.8,2.1,5.4
			c1,1.6,2.3,2.8,3.9,3.8c1.6,1,3.6,1.4,6,1.4s4.4-0.5,6.1-1.5c1.6-1,3-2.2,4-3.8s1.7-3.4,2.1-5.4c0.4-2,0.6-4.1,0.6-6.3v-26.6h10
			L182.1,199.9L182.1,199.9z M229.8,197c-0.8,2.1-1.9,3.9-3.3,5.5c-1.4,1.6-3.1,2.9-5.1,3.9s-4.2,1.5-6.6,1.5h-12.3v17.5h-10.1
			v-52.1h22.1c2.4,0,4.6,0.5,6.6,1.5s3.8,2.3,5.2,4c1.5,1.6,2.6,3.5,3.5,5.6c0.8,2.1,1.2,4.2,1.2,6.3C231,192.8,230.6,195,229.8,197
			z M281.9,225.4h-10.1v-22.2h-23.6v22.2H238v-52.1h10.1v21.1h23.6v-21.1h10.1L281.9,225.4L281.9,225.4z M327.8,182.2h-24.9v13.4
			h20.7v8.2h-20.7v21.6h-10.1v-52.1h35V182.2z M218.6,184.4c-0.6-0.7-1.4-1.3-2.2-1.6c-0.9-0.4-1.7-0.6-2.6-0.6h-11.3v16.9h11.8
			c1.9,0,3.4-0.8,4.7-2.3c1.2-1.5,1.9-3.6,1.9-6.2c0-1.3-0.2-2.5-0.6-3.6C219.7,186,219.2,185.1,218.6,184.4z M220.1,187.1
			c-0.4-1-0.9-1.9-1.5-2.7c-0.6-0.7-1.4-1.3-2.2-1.6c-0.9-0.4-1.7-0.6-2.6-0.6h-11.3v16.9h11.8c1.9,0,3.4-0.8,4.7-2.3
			c1.2-1.5,1.9-3.6,1.9-6.2C220.7,189.3,220.5,188.1,220.1,187.1z M220.1,187.1c-0.4-1-0.9-1.9-1.5-2.7c-0.6-0.7-1.4-1.3-2.2-1.6
			c-0.9-0.4-1.7-0.6-2.6-0.6h-11.3v16.9h11.8c1.9,0,3.4-0.8,4.7-2.3c1.2-1.5,1.9-3.6,1.9-6.2C220.7,189.3,220.5,188.1,220.1,187.1z"
			/>
	</g>
</g>
</svg>
