<?xml version="1.0" encoding="utf-8"?>
<!-- Generator: Adobe Illustrator 21.0.2, SVG Export Plug-In . SVG Version: 6.00 Build 0)  -->
<svg version="1.1" id="Layer_1" xmlns="http://www.w3.org/2000/svg" xmlns:xlink="http://www.w3.org/1999/xlink" x="0px" y="0px"
	 viewBox="0 0 500 500" style="enable-background:new 0 0 500 500;" xml:space="preserve">
<style type="text/css">
	.st0{fill:#7616D3;}
</style>
<g>
	<path class="st0" d="M478.8,440.2c-4.4-16.2-11.5-42.8-15.8-59.1l-5.4-20.1c19.5-34.5,30.6-74.4,30.6-116.9
		C488.2,112.6,381.5,6,250,6C118.5,6,11.8,112.6,11.8,244.2c0,131.5,106.6,238.2,238.2,238.2c36.3,0,70.7-8.1,101.5-22.7
		c30.9,9.4,71.9,22.1,82.8,25l31.2,8.4c16.2,4.4,26-5.4,21.6-21.6L478.8,440.2z M376.7,198.9l-34.9,139.6
		c-1.6,6.2-4.9,11.2-10.1,14.8c-5.1,3.6-10.9,5.4-17.3,5.4c-6.5,0-12.5-1.9-17.8-5.8c-5.4-3.8-9.1-9.4-11.2-16.8L250,216.5
		l-35.3,119.6c-2.1,7.4-5.8,12.9-11.2,16.8c-5.3,3.8-11.3,5.8-17.8,5.8c-6.4,0-12.2-1.8-17.3-5.4c-5.1-3.6-8.5-8.5-10.1-14.8
		l-35.1-139.6c-0.4-1.7-0.6-3.4-0.6-5c0-5.3,1.9-9.7,5.6-13.1c3.8-3.4,8.1-5.1,13-5.1c4.2,0,7.9,1.4,11.1,4.1
		c3.2,2.7,5.5,6.7,6.6,12.1l29.3,125.9l34-114.8c2.5-9,5.9-15.7,10.1-20c4.2-4.3,10.1-6.5,17.5-6.5c7.4,0,13.3,2.2,17.5,6.5
		c4.3,4.4,7.6,11,10.1,20l33.9,114.8l29.3-125.9c1.2-5.4,3.4-9.4,6.7-12.1c3.3-2.7,7-4.1,11.1-4.1c4.9,0,9.3,1.7,13,5.1
		c3.7,3.4,5.6,7.7,5.6,13.1C377.3,195.5,377.1,197.2,376.7,198.9z"/>
</g>
</svg>
