<?xml version="1.0" standalone="no"?>
<!DOCTYPE svg PUBLIC "-//W3C//DTD SVG 20010904//EN"
 "http://www.w3.org/TR/2001/REC-SVG-20010904/DTD/svg10.dtd">
<svg version="1.0" xmlns="http://www.w3.org/2000/svg"
 width="800.000000pt" height="800.000000pt" viewBox="0 0 800.000000 800.000000"
 preserveAspectRatio="xMidYMid meet">
<metadata>
Created by potrace 1.11, written by Peter Selinger 2001-2013
</metadata>
<g transform="translate(0.000000,800.000000) scale(0.100000,-0.100000)"
fill="#000000" stroke="none">
<path d="M3779 7936 c-2 -2 -44 -6 -94 -10 -49 -3 -101 -8 -115 -10 -14 -2
-47 -7 -75 -11 -108 -14 -121 -16 -145 -21 -14 -2 -36 -6 -50 -9 -139 -27
-141 -27 -270 -60 -824 -209 -1605 -739 -2117 -1435 -65 -88 -193 -277 -193
-285 0 -1 -19 -34 -42 -71 -40 -66 -188 -356 -188 -368 0 -4 -9 -25 -19 -49
-85 -186 -196 -537 -236 -747 -18 -94 -37 -209 -41 -253 -3 -29 -7 -58 -9 -64
-19 -55 -27 -604 -12 -778 7 -85 41 -336 51 -380 3 -11 15 -65 27 -120 185
-868 701 -1677 1419 -2226 239 -183 537 -358 795 -468 55 -24 114 -49 130 -56
136 -61 539 -176 703 -201 20 -3 55 -9 77 -14 22 -5 67 -12 100 -15 33 -4 71
-8 85 -11 84 -13 216 -19 445 -19 226 0 332 5 460 20 46 6 129 17 145 20 278
51 401 82 615 153 99 33 232 83 295 111 63 28 120 51 126 51 7 0 151 -42 321
-94 169 -52 430 -131 578 -175 149 -45 293 -89 320 -97 28 -9 58 -18 68 -19 9
-2 65 -17 125 -34 372 -103 461 -125 531 -127 161 -6 252 77 257 233 3 76 5
68 -127 558 -70 260 -92 340 -129 480 -32 120 -57 214 -132 490 -101 375 -102
379 -86 409 177 329 295 636 374 971 26 112 59 292 69 375 3 30 8 62 10 70 26
100 26 750 1 885 -2 11 -7 45 -11 75 -7 59 -28 184 -44 265 -17 89 -79 317
-114 425 -126 384 -320 756 -565 1085 -324 436 -737 799 -1217 1070 -62 35
-322 165 -330 165 -4 0 -30 11 -58 24 -56 25 -298 113 -322 116 -3 0 -24 8
-47 16 -37 13 -172 49 -218 59 -8 2 -44 10 -80 18 -36 8 -110 23 -165 32 -130
21 -138 22 -215 31 -36 4 -81 9 -100 11 -45 5 -556 13 -561 9z m-1417 -2760
c60 -29 106 -75 137 -139 29 -58 44 -119 156 -607 35 -152 78 -337 95 -405 19
-77 60 -258 65 -286 3 -15 9 -38 14 -51 5 -13 9 -26 9 -31 1 -13 13 -69 44
-197 16 -69 32 -134 34 -145 21 -107 88 -382 93 -388 4 -4 27 59 51 140 23 82
59 200 77 263 19 63 52 174 73 245 48 162 73 249 161 545 38 129 79 267 90
305 129 434 131 441 180 535 47 89 60 106 122 153 136 104 387 94 513 -20 64
-58 145 -211 174 -328 4 -16 19 -68 33 -115 27 -88 163 -550 222 -750 32 -109
162 -548 226 -765 35 -116 59 -203 59 -212 0 -4 4 -3 9 3 5 5 59 225 120 489
61 264 125 539 142 610 17 72 33 141 35 155 3 14 10 43 16 65 5 22 12 49 14
60 2 11 22 98 45 195 23 96 42 182 44 190 35 160 71 296 91 340 28 62 73 109
136 142 59 30 173 31 240 1 107 -48 178 -152 178 -261 0 -61 -574 -2359 -607
-2428 -110 -233 -448 -309 -682 -153 -70 47 -108 89 -150 168 -27 51 -101 293
-290 941 -17 58 -35 119 -40 135 -18 59 -60 201 -80 270 -40 137 -112 381
-136 460 -13 44 -34 113 -46 153 -11 40 -23 71 -26 69 -2 -3 -10 -27 -18 -53
-7 -27 -68 -233 -135 -459 -67 -225 -133 -447 -146 -492 -13 -46 -35 -120 -48
-165 -138 -477 -241 -809 -265 -856 -138 -273 -515 -342 -741 -135 -88 81
-108 129 -187 448 -20 83 -23 96 -29 125 -3 14 -9 39 -15 56 -5 17 -11 40 -13
50 -3 10 -68 273 -146 584 -78 311 -143 572 -145 580 -2 8 -31 124 -65 256
-33 133 -63 250 -65 260 -2 11 -11 46 -19 79 -38 151 5 275 121 346 77 48 203
59 275 25z"/>
</g>
</svg>
