<?xml version="1.0" standalone="no"?>
<!DOCTYPE svg PUBLIC "-//W3C//DTD SVG 20010904//EN"
 "http://www.w3.org/TR/2001/REC-SVG-20010904/DTD/svg10.dtd">
<svg version="1.0" xmlns="http://www.w3.org/2000/svg"
 width="16.000000pt" height="16.000000pt" viewBox="0 0 16.000000 16.000000"
 preserveAspectRatio="xMidYMid meet">
<metadata>
Created by potrace 1.11, written by Peter Selinger 2001-2013
</metadata>
<g transform="translate(0.000000,16.000000) scale(0.002000,-0.002000)"
fill="#000000" stroke="none">
<path d="M3724 7430 c-822 -57 -1563 -388 -2148 -959 -923 -903 -1248 -2258
-837 -3490 252 -754 775 -1403 1466 -1821 412 -248 878 -403 1390 -462 142
-16 548 -16 690 0 157 18 321 47 463 82 135 33 399 116 406 129 3 4 -124 36
-282 70 -182 40 -297 71 -314 83 -15 10 -33 36 -39 57 -9 32 -8 44 6 75 19 39
58 66 97 66 13 0 226 -45 473 -100 297 -66 771 -185 1395 -350 520 -136 946
-247 947 -246 2 1 -130 400 -293 887 l-295 884 36 65 c225 405 362 837 417
1315 7 61 12 216 12 345 0 239 -10 364 -44 570 -100 589 -355 1140 -741 1600
-116 138 -338 356 -469 461 -511 409 -1135 665 -1775 728 -152 15 -426 20
-561 11z"/>
</g>
</svg>
